<svg id="ebZ26jQGgRN1" xmlns="http://www.w3.org/2000/svg" xmlns:xlink="http://www.w3.org/1999/xlink" viewBox="0 0 680 643" shape-rendering="geometricPrecision" text-rendering="geometricPrecision">
<style><![CDATA[
#ebZ26jQGgRN8_to {animation: ebZ26jQGgRN8_to__to 1900ms linear infinite alternate-reverse forwards}@keyframes ebZ26jQGgRN8_to__to { 0% {transform: translate(122.918736px,448.31913px)} 26.315789% {transform: translate(122.918736px,448.31913px)} 47.368421% {transform: translate(113.919733px,457.318141px)} 94.736842% {transform: translate(123.209037px,448.028854px)} 100% {transform: translate(123.209037px,448.028854px)}} #ebZ26jQGgRN9_to {animation: ebZ26jQGgRN9_to__to 1900ms linear infinite alternate-reverse forwards}@keyframes ebZ26jQGgRN9_to__to { 0% {transform: translate(146.079698px,514.920135px)} 26.315789% {transform: translate(137.95157px,521.306526px)} 57.894737% {transform: translate(144.918549px,516.535923px)} 100% {transform: translate(144.918549px,516.535923px)}} #ebZ26jQGgRN10_to {animation: ebZ26jQGgRN10_to__to 1900ms linear infinite alternate-reverse forwards}@keyframes ebZ26jQGgRN10_to__to { 0% {transform: translate(213.551498px,537.513136px)} 10.526316% {transform: translate(213.551498px,537.513136px)} 36.842105% {transform: translate(203.971917px,546.790724px)} 78.947368% {transform: translate(211.809759px,538.952882px)} 100% {transform: translate(211.809759px,538.952882px)}} #ebZ26jQGgRN11_to {animation: ebZ26jQGgRN11_to__to 1900ms linear infinite alternate-reverse forwards}@keyframes ebZ26jQGgRN11_to__to { 0% {transform: translate(148.276498px,517.116501px)} 21.052632% {transform: translate(141.773996px,522.225623px)} 26.315789% {transform: translate(140.14837px,523.502892px)} 57.894737% {transform: translate(147.115351px,518.732298px)} 100% {transform: translate(147.115351px,518.732298px)}}
]]></style>
<path d="M305.797,204.527c-2.922-4.879-8.353-7.68-14.024-7.249l-121.894,9.416c-12.341.954-23.334,7.422-30.162,17.748L88.5626,301.813c-5.1769,7.831-6.0009,17.63-2.2029,26.214c3.7969,8.584,11.6019,14.565,20.8763,16.002l98.84,15.309c.769.119,1.537.178,2.299.178c5.063-.001,9.853-2.568,12.636-6.922l84.556-132.282c3.063-4.793,3.151-10.905.23-15.785Z" fill="#e45a6e"/><path d="M456.472,355.203c-4.88-2.922-10.993-2.833-15.785.23L308.406,439.99c-5.009,3.202-7.654,9.059-6.745,14.934l15.308,98.84c1.437,9.276,7.419,17.08,16.004,20.878c3.57,1.578,7.35,2.357,11.112,2.357c5.281,0,10.528-1.538,15.101-4.56l77.372-51.156c10.326-6.826,16.795-17.82,17.747-30.162l9.416-121.893c.439-5.671-2.369-11.102-7.249-14.025Z" fill="#d82e44"/><path d="M276.868,477.275c5.97,5.97,14.453,8.763,22.78,7.37c122.111-20.418,218.739-121.521,255.526-192.643c40.849-78.974,42.362-162.429,40.227-201.5689-.732-13.4119-11.423-24.1028-24.835-24.8348-39.14-2.134-122.594-.621-201.568,40.2277-71.122,36.787-172.225,133.415-192.643,255.526-1.392,8.327,1.4,16.81,7.37,22.78l93.143,93.143Z" fill="#f1f1fb"/><path d="M587.739,73.2607L230.297,430.703l46.571,46.572c5.97,5.97,14.453,8.762,22.78,7.37c122.111-20.418,218.74-121.522,255.526-192.643c40.849-78.973,42.362-162.429,40.227-201.5684-.366-6.7059-3.222-12.7319-7.662-17.1729Z" fill="#d7d6fb"/><path d="M434.728,301.236c-19.209.001-38.41-7.309-53.033-21.932-14.166-14.164-21.967-32.999-21.967-53.032s7.801-38.868,21.967-53.033c29.241-29.241,76.822-29.242,106.065,0c14.165,14.165,21.966,33,21.966,53.033s-7.801,38.868-21.966,53.032c-14.619,14.62-33.829,21.93-53.032,21.932Zm-42.427-117.39h.01-.01Z" fill="#466288"/><path d="M176.355,361.352c-1.392,8.327,1.4,16.809,7.37,22.779l93.143,93.144c5.97,5.97,14.453,8.762,22.78,7.37c26.571-4.443,51.933-12.709,75.736-23.652L200.007,285.616c-10.943,23.803-19.209,49.166-23.652,75.736Z" fill="#466288"/><g id="ebZ26jQGgRN8_to" transform="translate(123.209037,448.028854)"><path d="M99.3032,486.935c3.8378,0,7.6778-1.465,10.6058-4.394l48.973-48.973c5.858-5.857,5.858-15.355,0-21.213-5.857-5.858-15.354-5.858-21.213,0L88.6972,461.328c-5.858,5.857-5.858,15.355,0,21.213c2.929,2.93,6.767,4.394,10.606,4.394Z" transform="translate(-123.789608,-447.448257)" fill="#fdb43a"/></g><g id="ebZ26jQGgRN9_to" transform="translate(144.918549,516.535923)"><path d="M203.763,457.236c-5.857-5.857-15.355-5.857-21.213,0L88.3964,551.392c-5.858,5.857-5.858,15.354,0,21.212c2.929,2.929,6.768,4.393,10.607,4.393c3.8386,0,7.6776-1.465,10.6056-4.394l94.154-94.154c5.858-5.857,5.858-15.356,0-21.213Z" transform="translate(-146.079697,-514.920135)" fill="#fdb43a"/></g><g id="ebZ26jQGgRN10_to" transform="translate(211.809759,538.952882)"><path d="M248.644,502.118c-5.857-5.857-15.355-5.857-21.213,0L178.459,551.09c-5.858,5.857-5.858,15.355,0,21.213c2.929,2.929,6.768,4.394,10.606,4.394s7.678-1.465,10.606-4.394l48.973-48.973c5.858-5.857,5.858-15.355,0-21.212Z" transform="translate(-213.551498,-537.211136)" fill="#f57a21"/></g><g id="ebZ26jQGgRN11_to" transform="translate(147.115351,518.732298)"><path d="M88.3965,572.604c2.929,2.929,6.768,4.393,10.607,4.393c3.8395,0,7.6785-1.465,10.6065-4.394l94.153-94.154c5.858-5.857,5.858-15.355,0-21.213L88.3965,572.604Z" transform="translate(-148.276497,-517.116501)" fill="#f57a21"/></g><path d="M230.297,430.703l46.572,46.572c5.969,5.97,14.452,8.762,22.779,7.37c26.571-4.443,51.933-12.709,75.737-23.652l-87.689-87.688-57.399,57.398Z" fill="#354a67"/><path d="M381.695,279.305c14.623,14.623,33.824,21.934,53.033,21.932c19.203-.002,38.413-7.313,53.032-21.932c14.166-14.166,21.967-33,21.967-53.033s-7.801-38.868-21.967-53.033L381.695,279.305Z" fill="#354a67"/><path d="M434.728,181.294c-11.523,0-23.047,4.386-31.819,13.159-8.499,8.499-13.181,19.799-13.181,31.819s4.682,23.32,13.181,31.819c17.545,17.545,46.095,17.546,63.64,0c8.499-8.5,13.18-19.8,13.18-31.82s-4.681-23.32-13.18-31.819c-8.773-8.772-20.296-13.158-31.821-13.158Z" fill="#4bbefd"/><path d="M466.547,194.453l-63.639,63.639c17.545,17.545,46.095,17.546,63.639,0c8.499-8.5,13.18-19.8,13.18-31.82s-4.68-23.32-13.18-31.819Z" fill="#0590fb"/></svg>
